<?xml version="1.0" encoding="UTF-8" standalone="no"?>
<svg
   xmlns:dc="http://purl.org/dc/elements/1.1/"
   xmlns:cc="http://creativecommons.org/ns#"
   xmlns:rdf="http://www.w3.org/1999/02/22-rdf-syntax-ns#"
   xmlns:svg="http://www.w3.org/2000/svg"
   xmlns="http://www.w3.org/2000/svg"
   xmlns:sodipodi="http://sodipodi.sourceforge.net/DTD/sodipodi-0.dtd"
   xmlns:inkscape="http://www.inkscape.org/namespaces/inkscape"
   sodipodi:docname="logo.svg"
   inkscape:version="1.0beta2 (2b71d25, 2019-12-03)"
   id="svg2968"
   version="1.1"
   viewBox="0 0 210 297"
   height="297mm"
   width="210mm">
  <defs
     id="defs2962" />
  <sodipodi:namedview
     inkscape:window-maximized="0"
     inkscape:window-y="23"
     inkscape:window-x="0"
     inkscape:window-height="704"
     inkscape:window-width="1280"
     showgrid="false"
     inkscape:document-rotation="0"
     inkscape:current-layer="layer1"
     inkscape:document-units="mm"
     inkscape:cy="384.47549"
     inkscape:cx="304.56179"
     inkscape:zoom="1.2740631"
     inkscape:pageshadow="2"
     inkscape:pageopacity="0.0"
     borderopacity="1.0"
     bordercolor="#666666"
     pagecolor="#ffffff"
     id="base" />
  <metadata
     id="metadata2965">
    <rdf:RDF>
      <cc:Work
         rdf:about="">
        <dc:format>image/svg+xml</dc:format>
        <dc:type
           rdf:resource="http://purl.org/dc/dcmitype/StillImage" />
        <dc:title></dc:title>
      </cc:Work>
    </rdf:RDF>
  </metadata>
  <g
     id="layer1"
     inkscape:groupmode="layer"
     inkscape:label="Layer 1">
    <path
       inkscape:export-ydpi="96"
       inkscape:export-xdpi="96"
       inkscape:connector-curvature="0"
       id="path2179"
       style="fill:#f8a10e;fill-opacity:1;fill-rule:nonzero;stroke:none;stroke-width:0.0352777"
       d="m 111.15979,70.679453 h -0.79799 v -1.662994 h 0.79799 z m -0.42087,5.587997 h -2.33503 v -2.277178 c 0,-0.644877 0.52281,-1.167341 1.16769,-1.167341 0.64452,0 1.16734,0.522464 1.16734,1.167341 z m 0,7.19596 h -2.33503 v -2.27753 c 0,-0.64488 0.52281,-1.16734 1.16769,-1.16734 0.64452,0 1.16734,0.52246 1.16734,1.16734 z m -2.75555,-14.446951 h 0.79763 v 1.662994 h -0.79763 z m 1.17264,0 h 0.79798 v 1.662994 h -0.79798 z m 3.02754,-0.04022 V 68.34477 h -0.27164 c 0.0723,-0.676275 -0.41381,-1.273881 -0.92463,-1.560336 -0.65899,-0.370064 -1.17369,-0.909109 -1.17369,-0.909109 h -0.0501 v -0.01058 c 0,-0.09208 -0.0617,-0.169333 -0.14605,-0.194733 v -0.187325 c 0.13158,-0.02575 0.23036,-0.141464 0.23036,-0.280105 0,-0.158045 -0.12806,-0.286103 -0.28575,-0.286103 -0.15805,0 -0.2861,0.128058 -0.2861,0.286103 0,0.136525 0.096,0.250119 0.22401,0.278694 v 0.188736 c -0.084,0.0254 -0.1457,0.102658 -0.1457,0.194733 v 0.01058 h -0.0504 c 0,0 -0.51435,0.539045 -1.17333,0.909109 -0.52564,0.294569 -0.9585,0.653697 -0.90241,1.560336 h -0.26882 v 0.631472 h 0.48331 v 2.009422 h -0.30163 v 0.765528 h 0.46637 v 4.554718 h -0.508 v 0.9338 h -0.006 l 0.514,1.69227 v 4.64609 h -0.508 v 0.9338 h -0.006 l 0.51399,1.69224 v 9.46891 h 3.92819 v -9.46891 l 0.51435,-1.69224 h -0.006 v -0.9338 h -0.508 v -4.64609 l 0.51435,-1.69227 h -0.006 v -0.9338 h -0.508 v -4.554718 h 0.46637 v -0.765528 h -0.30163 v -2.009422 h 0.48331" />
    <path
       inkscape:export-ydpi="96"
       inkscape:export-xdpi="96"
       inkscape:connector-curvature="0"
       id="path2181"
       style="fill:#f8a10e;fill-opacity:1;fill-rule:nonzero;stroke:none;stroke-width:0.0352777"
       d="m 79.467989,70.679453 h -0.79798 v -1.662994 h 0.79798 z m -0.42086,5.587997 h -2.33468 v -2.277178 c 0,-0.644877 0.52246,-1.167341 1.16734,-1.167341 0.64452,0 1.16734,0.522464 1.16734,1.167341 z m 0,7.19596 h -2.33468 v -2.27753 c 0,-0.64488 0.52246,-1.16734 1.16734,-1.16734 0.64452,0 1.16734,0.52246 1.16734,1.16734 z m -2.75555,-14.446951 h 0.79763 v 1.662994 h -0.79763 z m 1.17264,0 h 0.79798 v 1.662994 h -0.79798 z m 3.02789,-0.04022 V 68.34477 h -0.27199 c 0.0723,-0.676275 -0.41381,-1.273881 -0.92463,-1.560336 -0.65899,-0.370064 -1.1737,-0.909109 -1.1737,-0.909109 h -0.0501 v -0.01058 c 0,-0.09208 -0.0617,-0.169333 -0.14605,-0.194733 v -0.187325 c 0.13159,-0.02575 0.23036,-0.141464 0.23036,-0.280106 0,-0.158044 -0.12805,-0.286103 -0.28575,-0.286103 -0.15804,0 -0.2861,0.128059 -0.2861,0.286103 0,0.136525 0.096,0.25012 0.22401,0.278695 v 0.188736 c -0.084,0.0254 -0.14569,0.102658 -0.14569,0.194733 v 0.01058 h -0.0504 c 0,0 -0.51435,0.539044 -1.17334,0.909108 -0.52564,0.29457 -0.9585,0.653698 -0.9024,1.560337 h -0.26882 v 0.631472 h 0.4833 v 2.009422 h -0.30162 v 0.765528 h 0.46637 v 4.554718 h -0.508 v 0.9338 h -0.006 l 0.514,1.69227 v 4.64609 h -0.508 v 0.9338 h -0.006 l 0.514,1.69224 v 9.46891 h 3.92818 v -9.46891 l 0.51435,-1.69224 h -0.006 v -0.9338 h -0.508 v -4.64609 l 0.51435,-1.69227 h -0.006 v -0.9338 h -0.508 v -4.554718 h 0.46637 v -0.765528 h -0.30163 v -2.009422 h 0.48366" />
    <path
       inkscape:export-ydpi="96"
       inkscape:export-xdpi="96"
       inkscape:connector-curvature="0"
       id="path2183"
       style="fill:#396fc0;fill-opacity:1;fill-rule:nonzero;stroke:none;stroke-width:0.0352777"
       d="m 77.474089,90.0272 c -2.75378,0.15515 -5.50545,0.36198 -8.25358,0.62163 0.11747,1.24382 2.1918,3.72925 2.1918,3.72925 0,0 -1.61148,2.41112 -1.49754,3.61555 2.51707,-0.23813 5.03732,-0.42941 7.55932,-0.57687 V 90.0272" />
    <path
       inkscape:export-ydpi="96"
       inkscape:export-xdpi="96"
       inkscape:connector-curvature="0"
       id="path2185"
       style="fill:#285896;fill-opacity:1;fill-rule:nonzero;stroke:none;stroke-width:0.0352777"
       d="m 73.125049,93.50164 4.33105,-3.4917 v 7.70217 z" />
    <path
       inkscape:export-ydpi="96"
       inkscape:export-xdpi="96"
       inkscape:connector-curvature="0"
       id="path2187"
       style="fill:#396fc0;fill-opacity:1;fill-rule:nonzero;stroke:none;stroke-width:0.0352777"
       d="m 109.97692,90.0272 c 2.75414,0.15515 5.5058,0.36198 8.25359,0.62163 -0.11747,1.24382 -2.19146,3.72925 -2.19146,3.72925 0,0 1.61114,2.41112 1.49755,3.61555 -2.51707,-0.23813 -5.03732,-0.42941 -7.55968,-0.57687 V 90.0272" />
    <path
       inkscape:export-ydpi="96"
       inkscape:export-xdpi="96"
       inkscape:connector-curvature="0"
       id="path2189"
       style="fill:#285896;fill-opacity:1;fill-rule:nonzero;stroke:none;stroke-width:0.0352777"
       d="m 114.32632,93.50164 -4.33141,-3.4917 v 7.70217 z" />
    <path
       inkscape:export-ydpi="96"
       inkscape:export-xdpi="96"
       inkscape:connector-curvature="0"
       id="path2191"
       style="fill:#f8a10e;fill-opacity:1;fill-rule:nonzero;stroke:none;stroke-width:0.0352777"
       d="m 103.66361,91.60133 h -2.62784 v -2.61345 c 0,-0.7257 0.58843,-1.3141 1.3141,-1.3141 0.72566,0 1.31374,0.5884 1.31374,1.3141 z m -4.187471,0 h -2.62784 v -2.61345 c 0,-0.7257 0.58843,-1.3141 1.31374,-1.3141 0.72566,0 1.3141,0.5884 1.3141,1.3141 z m -4.18747,0 h -2.62785 v -2.61345 c 0,-0.7257 0.58808,-1.3141 1.31375,-1.3141 0.72566,0 1.3141,0.5884 1.3141,1.3141 z m -4.18748,0 h -2.62819 v -2.61345 c 0,-0.7257 0.58843,-1.3141 1.3141,-1.3141 0.72566,0 1.31409,0.5884 1.31409,1.3141 z m -4.18747,0 h -2.62819 v -2.61345 c 0,-0.7257 0.58843,-1.3141 1.31409,-1.3141 0.72567,0 1.3141,0.5884 1.3141,1.3141 z M 106.1066,89.2628 v -1.14173 h -0.6537 c 2.27647,-4.53665 -0.85725,-8.85853 -4.16631,-10.7152 -3.488621,-1.95757 -6.211711,-4.811892 -6.211711,-4.811892 h -0.2667 v -0.05468 c 0,-0.48895 -0.32596,-0.897466 -0.77117,-1.031875 v -0.311855 c 0.74824,-0.145697 1.31339,-0.803628 1.31339,-1.594203 0,-0.790575 -0.56515,-1.448505 -1.31339,-1.59385 v -2.861028 c 1.54129,-0.05715 2.85468,-1.001889 3.4417,-2.339975 -0.62477,0.731661 -1.55293,1.196269 -2.59045,1.196269 -1.88066,0 -3.40536,-1.524705 -3.40536,-3.405364 0,-1.5621 1.05198,-2.877608 2.48567,-3.278716 l -0.0783,-0.0021 c -2.16358,0 -3.91795,1.754011 -3.91795,3.917597 0,2.002367 1.50284,3.652661 3.4417,3.887964 v 2.885369 c -0.74824,0.145345 -1.31303,0.803275 -1.31303,1.59385 0,0.790575 0.56479,1.448506 1.31303,1.594203 v 0.311855 c -0.44485,0.134409 -0.77117,0.542925 -0.77117,1.031875 v 0.05468 h -0.26634 c 0,0 -2.7231,2.854323 -6.21207,4.811893 -3.3087,1.85666 -6.44243,6.17855 -4.1663,10.7152 h -0.6537 v 1.14173 h -2.17276 v 6.63455 H 108.27937 V 89.2628 h -2.17275" />
    <path
       inkscape:export-ydpi="96"
       inkscape:export-xdpi="96"
       inkscape:connector-curvature="0"
       id="path2193"
       style="fill:#396fc0;fill-opacity:1;fill-rule:nonzero;stroke:none;stroke-width:0.0352777"
       d="m 114.32491,93.50164 c -13.7026,-1.29537 -27.496211,-1.29537 -41.198451,0 0.23142,2.44834 0.46285,4.8963 0.69427,7.34451 13.24045,-1.25166 26.569461,-1.25166 39.809561,0 0.23177,-2.44821 0.46284,-4.89617 0.69462,-7.34451" />
    <text
       inkscape:export-ydpi="96"
       inkscape:export-xdpi="96"
       id="text4084"
       y="97.922852"
       x="81.279411"
       style="font-style:oblique;font-weight:300;font-size:4.93889px;line-height:1.25;font-family:Avenir;-inkscape-font-specification:'Avenir Light Oblique';fill:#ffffff;stroke-width:0.264583"
       xml:space="preserve"><tspan
         style="font-style:normal;font-variant:normal;font-weight:normal;font-stretch:normal;font-family:'Lobster 1.3';-inkscape-font-specification:'Lobster 1.3, ';fill:#ffffff;stroke-width:0.264583"
         y="97.922852"
         x="81.279411"
         id="tspan4082"
         sodipodi:role="line">Daftar Ngaji</tspan></text>
  </g>
</svg>
